ffmpeg started on 2025-06-27 at 12:04:41
Report written to "D:\Convert\FFMetrics\reports\psnr_report-6.txt"
Log level: 32
Command line:
ffmpeg -hide_banner -nostdin -i "G:\\\xc0\xed\xe8\xec\xe5\\[\xd2\xee\xef]\\\xcf\xee\xe2\xe5\xeb\xe8\xf2\xe5\xeb\xfc\\\xd2\xc2-2\\Special\\[Ohys-Raws] Overlord II - SP10 (BDRip-720p)_HEVC.mkv" -i "G:\\\xc0\xed\xe8\xec\xe5\\[\xd2\xee\xef]\\\xcf\xee\xe2\xe5\xeb\xe8\xf2\xe5\xeb\xfc\\\xd2\xc2-2\\Special\\[Ohys-Raws] Overlord II - SP10 (BDRip-720p).mkv" -lavfi "[0:v]settb=AVTB,setpts=PTS-STARTPTS,format=pix_fmts=yuv420p10,fps=24000/1001,scale=1280:720:flags=bicubic[main];[1:v]settb=AVTB,setpts=PTS-STARTPTS,format=pix_fmts=yuv420p,fps=24000/1001,scale=1280:720:flags=bicubic[ref];[main][ref]psnr=eof_action=endall:stats_file='D\\:/Convert/FFMetrics/logs/psnr_logfile-6.txt'" -f null -
Input #0, matroska,webm, from 'G:\Аниме\[Топ]\Повелитель\ТВ-2\Special\[Ohys-Raws] Overlord II - SP10 (BDRip-720p)_HEVC.mkv':
  Metadata:
    ENCODER         : Lavf61.7.100
  Duration: 00:01:32.10, start: -0.021000, bitrate: 443 kb/s
  Stream #0:0(jpn): Video: hevc (Main 10), yuv420p10le(tv, bt709, progressive), 1280x720 [SAR 1:1 DAR 16:9], 23.98 fps, 23.98 tbr, 1k tbn (default)
      Metadata:
        ENCODER         : Lavc61.19.100 libx265
        BPS             : 244055
        DURATION        : 00:01:32.091708333
        NUMBER_OF_FRAMES: 2208
        NUMBER_OF_BYTES : 2809413
        _STATISTICS_WRITING_APP: mkvpropedit v66.0.0 ('Josie') 64-bit
        _STATISTICS_WRITING_DATE_UTC: 2025-06-27 08:26:32
        _STATISTICS_TAGS: BPS DURATION NUMBER_OF_FRAMES NUMBER_OF_BYTES
  Stream #0:1(jpn): Audio: aac (LC), 48000 Hz, stereo, fltp (default)
      Metadata:
        ENCODER         : Lavc61.19.100 aac
        BPS             : 195547
        DURATION        : 00:01:32.075000000
        NUMBER_OF_FRAMES: 4317
        NUMBER_OF_BYTES : 2250626
        _STATISTICS_WRITING_APP: mkvpropedit v66.0.0 ('Josie') 64-bit
        _STATISTICS_WRITING_DATE_UTC: 2025-06-27 08:26:32
        _STATISTICS_TAGS: BPS DURATION NUMBER_OF_FRAMES NUMBER_OF_BYTES
Input #1, matroska,webm, from 'G:\Аниме\[Топ]\Повелитель\ТВ-2\Special\[Ohys-Raws] Overlord II - SP10 (BDRip-720p).mkv':
  Metadata:
    encoder         : libebml v1.2.3 + libmatroska v1.3.0
    creation_time   : 2018-08-21T12:08:41.000000Z
  Duration: 00:01:32.09, start: 0.000000, bitrate: 1180 kb/s
  Stream #1:0(jpn): Video: h264 (Main), yuv420p(progressive), 1280x720 [SAR 1:1 DAR 16:9], 23.98 fps, 23.98 tbr, 1k tbn (default)
  Stream #1:1(jpn): Audio: aac (LC), 48000 Hz, stereo, fltp (default)
Stream mapping:
  Stream #0:0 (hevc) -> settb:default
  Stream #1:0 (h264) -> settb:default
  psnr:default -> Stream #0:0 (wrapped_avframe)
  Stream #0:1 -> #0:1 (aac (native) -> pcm_s16le (native))
[swscaler @ 000002682a24ee80] No accelerated colorspace conversion found from yuv420p to bgr48le.
[swscaler @ 000002682a2e5c40] No accelerated colorspace conversion found from yuv420p to bgr48le.
[swscaler @ 000002682a485500] No accelerated colorspace conversion found from yuv420p to bgr48le.
[swscaler @ 000002682a4db8c0] No accelerated colorspace conversion found from yuv420p to bgr48le.
[swscaler @ 000002682a725800] No accelerated colorspace conversion found from yuv420p to bgr48le.
[swscaler @ 000002682a835400] No accelerated colorspace conversion found from yuv420p to bgr48le.
[swscaler @ 000002682a9d8bc0] No accelerated colorspace conversion found from yuv420p to bgr48le.
[swscaler @ 000002682ab057c0] No accelerated colorspace conversion found from yuv420p to bgr48le.
[swscaler @ 000002682abac740] No accelerated colorspace conversion found from yuv420p to bgr48le.
[swscaler @ 000002682ac10040] No accelerated colorspace conversion found from yuv420p to bgr48le.
[swscaler @ 000002682ac3f100] No accelerated colorspace conversion found from yuv420p to bgr48le.
[swscaler @ 000002682acbcf00] No accelerated colorspace conversion found from yuv420p to bgr48le.
[swscaler @ 000002682ad1b040] No accelerated colorspace conversion found from yuv420p to bgr48le.
[swscaler @ 000002682ad76040] No accelerated colorspace conversion found from yuv420p to bgr48le.
[swscaler @ 000002682adf2040] No accelerated colorspace conversion found from yuv420p to bgr48le.
[swscaler @ 000002682ae87040] No accelerated colorspace conversion found from yuv420p to bgr48le.
Output #0, null, to 'pipe:':
  Metadata:
    encoder         : Lavf61.7.100
  Stream #0:0: Video: wrapped_avframe, yuv420p10le(tv, bt709, progressive), 1280x720 [SAR 1:1 DAR 16:9], q=2-31, 200 kb/s, 23.98 fps, 23.98 tbn
      Metadata:
        encoder         : Lavc61.19.100 wrapped_avframe
  Stream #0:1(jpn): Audio: pcm_s16le, 48000 Hz, stereo, s16, 1536 kb/s (default)
      Metadata:
        _STATISTICS_TAGS: BPS DURATION NUMBER_OF_FRAMES NUMBER_OF_BYTES
        BPS             : 195547
        DURATION        : 00:01:32.075000000
        NUMBER_OF_FRAMES: 4317
        NUMBER_OF_BYTES : 2250626
        _STATISTICS_WRITING_APP: mkvpropedit v66.0.0 ('Josie') 64-bit
        _STATISTICS_WRITING_DATE_UTC: 2025-06-27 08:26:32
        encoder         : Lavc61.19.100 pcm_s16le
frame=   72 fps=0.0 q=-0.0 size=N/A time=00:00:03.00 bitrate=N/A speed=5.82x    frame=  158 fps=154 q=-0.0 size=N/A time=00:00:06.58 bitrate=N/A speed=6.43x    frame=  242 fps=158 q=-0.0 size=N/A time=00:00:10.09 bitrate=N/A speed=6.57x    frame=  334 fps=162 q=-0.0 size=N/A time=00:00:13.93 bitrate=N/A speed=6.75x    frame=  420 fps=163 q=-0.0 size=N/A time=00:00:17.51 bitrate=N/A speed=6.81x    frame=  508 fps=165 q=-0.0 size=N/A time=00:00:21.18 bitrate=N/A speed=6.88x    frame=  594 fps=165 q=-0.0 size=N/A time=00:00:24.77 bitrate=N/A speed=6.87x    frame=  687 fps=167 q=-0.0 size=N/A time=00:00:28.65 bitrate=N/A speed=6.96x    frame=  776 fps=168 q=-0.0 size=N/A time=00:00:32.36 bitrate=N/A speed=   7x    frame=  866 fps=168 q=-0.0 size=N/A time=00:00:36.11 bitrate=N/A speed=7.02x    frame=  954 fps=168 q=-0.0 size=N/A time=00:00:39.78 bitrate=N/A speed=7.02x    frame= 1043 fps=169 q=-0.0 size=N/A time=00:00:43.50 bitrate=N/A speed=7.04x    frame= 1135 fps=169 q=-0.0 size=N/A time=00:00:47.33 bitrate=N/A speed=7.06x    frame= 1216 fps=169 q=-0.0 size=N/A time=00:00:50.71 bitrate=N/A speed=7.03x    frame= 1306 fps=169 q=-0.0 size=N/A time=00:00:54.47 bitrate=N/A speed=7.05x    frame= 1396 fps=169 q=-0.0 size=N/A time=00:00:58.22 bitrate=N/A speed=7.07x    frame= 1488 fps=170 q=-0.0 size=N/A time=00:01:02.06 bitrate=N/A speed=7.08x    frame= 1574 fps=170 q=-0.0 size=N/A time=00:01:05.64 bitrate=N/A speed=7.08x    frame= 1671 fps=171 q=-0.0 size=N/A time=00:01:09.69 bitrate=N/A speed=7.12x    frame= 1760 fps=171 q=-0.0 size=N/A time=00:01:13.40 bitrate=N/A speed=7.13x    frame= 1852 fps=171 q=-0.0 size=N/A time=00:01:17.24 bitrate=N/A speed=7.14x    frame= 1942 fps=171 q=-0.0 size=N/A time=00:01:20.99 bitrate=N/A speed=7.15x    frame= 2030 fps=171 q=-0.0 size=N/A time=00:01:24.66 bitrate=N/A speed=7.15x    frame= 2114 fps=171 q=-0.0 size=N/A time=00:01:28.17 bitrate=N/A speed=7.13x    [Parsed_psnr_10 @ 0000026829a74b80] PSNR y:44.713621 u:48.587478 v:48.546661 average:45.661466 min:40.818377 max:56.256411
[out#0/null @ 000002681dce27c0] video:949KiB audio:17268KiB subtitle:0KiB other streams:0KiB global headers:0KiB muxing overhead: unknown
frame= 2208 fps=171 q=-0.0 Lsize=N/A time=00:01:32.09 bitrate=N/A speed=7.15x    
